<svg id="svg" version="1.1" xmlns="http://www.w3.org/2000/svg" xmlns:xlink="http://www.w3.org/1999/xlink" width="400" height="307.6923076923077" viewBox="0, 0, 400,307.6923076923077"><g id="svgg"><path id="path0" d="M210.509 26.536 C 209.539 27.011,205.823 30.882,205.167 32.101 C 203.495 35.206,206.655 39.523,211.964 41.388 C 213.253 41.841,215.108 42.614,216.086 43.106 C 218.995 44.569,220.006 44.189,219.995 41.636 C 219.985 39.060,218.228 34.462,217.254 34.462 C 216.906 34.462,215.151 31.316,214.301 29.170 C 213.224 26.447,212.175 25.719,210.509 26.536 M187.267 58.252 C 186.739 58.814,186.000 59.887,185.624 60.637 C 185.248 61.387,184.550 62.415,184.073 62.923 C 181.760 65.384,182.147 69.056,185.046 72.161 C 185.674 72.834,186.378 73.731,186.610 74.154 C 186.843 74.577,188.228 76.081,189.688 77.497 C 191.149 78.912,192.666 80.574,193.058 81.189 C 194.093 82.810,194.872 83.407,198.308 85.213 C 200.000 86.103,201.592 86.997,201.846 87.200 C 204.206 89.089,206.346 89.994,210.666 90.928 C 214.357 91.726,216.070 92.457,219.356 94.635 C 221.004 95.728,222.019 96.127,224.769 96.761 C 230.245 98.024,231.266 98.408,233.930 100.206 C 236.218 101.751,236.862 102.015,240.629 102.948 C 242.921 103.515,245.621 104.398,246.629 104.909 C 249.609 106.420,251.582 105.864,251.200 103.622 C 250.337 98.556,250.050 97.785,248.215 95.597 C 246.382 93.412,245.654 92.130,244.936 89.818 C 243.576 85.441,240.861 82.869,235.868 81.226 C 233.566 80.468,232.086 79.724,229.868 78.207 C 227.700 76.725,226.436 76.083,225.077 75.774 C 221.648 74.995,218.314 73.806,217.077 72.921 C 213.514 70.372,212.688 69.943,210.308 69.403 C 206.280 68.490,204.937 67.854,202.780 65.839 C 201.687 64.817,200.094 63.634,199.242 63.211 C 197.286 62.239,197.116 62.097,195.130 59.777 C 192.676 56.909,189.167 56.229,187.267 58.252 M165.351 87.520 C 161.022 89.488,160.477 94.786,164.187 98.828 C 165.391 100.140,166.548 101.801,167.120 103.036 C 167.639 104.159,168.259 105.497,168.497 106.011 C 168.736 106.525,169.709 107.771,170.661 108.780 C 171.794 109.983,172.817 111.514,173.627 113.222 C 174.306 114.655,175.384 116.386,176.021 117.068 C 178.093 119.284,179.737 121.961,180.465 124.302 C 180.853 125.553,181.849 126.684,183.562 127.821 C 184.451 128.411,185.855 129.496,186.683 130.231 C 189.399 132.643,190.083 132.922,195.620 133.878 C 201.844 134.953,202.974 135.303,206.980 137.398 C 210.179 139.072,210.213 139.081,218.077 140.478 C 221.720 141.126,222.326 141.338,226.825 143.546 C 230.008 145.109,231.198 145.529,233.286 145.830 C 239.594 146.736,244.143 148.192,248.818 150.800 C 249.353 151.099,250.668 151.500,251.741 151.692 C 261.300 153.403,262.911 153.922,269.615 157.449 C 271.202 158.284,274.055 158.187,274.796 157.274 C 276.214 155.524,275.407 153.420,271.279 148.106 C 270.966 147.704,270.258 146.285,269.704 144.951 C 267.618 139.931,265.290 138.108,259.077 136.632 C 255.554 135.795,254.316 135.328,250.923 133.552 C 248.196 132.124,246.432 131.397,245.380 131.266 C 240.860 130.705,236.612 129.262,232.615 126.928 C 230.604 125.753,229.712 125.460,225.674 124.649 C 220.922 123.694,218.724 122.848,214.699 120.426 C 213.373 119.628,212.154 119.220,209.776 118.779 C 205.369 117.962,202.987 117.376,202.068 116.883 C 199.991 115.769,196.983 114.175,196.154 113.748 C 195.646 113.486,194.021 112.901,192.543 112.448 C 188.494 111.205,185.717 108.917,183.366 104.886 C 182.637 103.637,181.059 101.577,179.859 100.308 C 178.659 99.038,177.337 97.322,176.921 96.494 C 176.487 95.629,175.399 94.318,174.367 93.417 C 173.323 92.505,172.057 90.975,171.348 89.770 C 169.535 86.686,168.247 86.202,165.351 87.520 M150.403 107.286 C 147.352 108.090,147.870 116.470,151.245 120.923 C 152.911 123.120,153.646 124.597,154.971 128.402 C 155.756 130.659,156.460 132.036,157.512 133.377 C 158.906 135.153,159.979 137.126,160.446 138.769 C 161.187 141.381,162.427 144.071,163.568 145.538 C 164.841 147.176,166.768 150.834,166.769 151.612 C 166.770 152.648,168.578 156.367,169.897 158.042 C 170.714 159.081,171.816 160.949,172.345 162.193 C 174.375 166.962,179.571 170.188,186.682 171.093 C 196.420 172.332,200.273 173.157,205.163 175.049 C 207.974 176.137,210.183 176.770,212.240 177.079 C 225.050 179.002,226.069 179.198,229.385 180.383 C 231.246 181.048,233.738 181.932,234.923 182.347 C 236.180 182.787,238.742 183.294,241.077 183.565 C 247.723 184.337,252.936 185.428,256.989 186.897 C 262.049 188.731,264.783 189.437,268.462 189.857 C 273.731 190.459,279.431 191.601,282.098 192.590 C 286.786 194.327,288.757 193.749,288.657 190.666 C 288.427 183.626,285.094 179.821,277.323 177.729 C 275.834 177.328,273.438 176.454,272.000 175.787 C 268.976 174.384,266.723 173.775,262.000 173.082 C 256.369 172.256,252.169 171.053,248.598 169.243 C 246.639 168.251,244.284 167.669,238.615 166.774 C 233.086 165.901,231.141 165.373,227.231 163.686 C 223.613 162.125,221.312 161.479,217.385 160.922 C 212.587 160.240,207.867 159.010,204.769 157.633 C 201.024 155.968,199.572 155.564,194.524 154.779 C 182.569 152.921,175.705 148.577,172.388 140.769 C 170.631 136.636,170.139 135.721,168.816 134.126 C 167.533 132.579,165.231 128.255,165.231 127.393 C 165.231 126.706,163.924 124.519,162.756 123.252 C 161.640 122.041,159.094 117.416,159.063 116.542 C 159.021 115.373,156.500 111.959,153.040 108.386 C 151.814 107.119,151.512 106.993,150.403 107.286 M136.939 125.435 C 135.079 127.799,135.864 133.462,138.623 137.580 C 140.321 140.113,140.985 141.646,141.818 144.950 C 142.804 148.860,143.792 151.792,144.461 152.793 C 146.442 155.758,146.961 156.969,148.018 161.096 C 149.113 165.373,149.790 167.098,151.548 170.093 C 152.840 172.294,154.463 176.581,154.460 177.785 C 154.457 178.838,156.111 183.567,156.814 184.518 C 157.212 185.057,157.538 185.628,157.538 185.788 C 157.538 185.948,157.738 186.244,157.982 186.446 C 158.558 186.925,160.133 191.061,160.606 193.339 C 161.214 196.266,162.384 199.257,163.786 201.462 C 164.512 202.604,165.354 204.197,165.656 205.003 C 166.747 207.904,168.887 209.468,172.462 209.978 C 174.546 210.275,180.344 211.597,182.636 212.298 C 185.323 213.119,192.590 214.374,196.000 214.606 C 206.030 215.287,213.072 216.328,219.361 218.057 C 224.714 219.528,228.614 220.204,234.995 220.764 C 248.113 221.915,251.308 222.441,261.231 225.083 C 268.285 226.961,272.903 226.580,277.589 223.733 C 279.114 222.806,280.717 222.206,283.852 221.389 C 293.107 218.975,292.300 216.505,281.538 214.309 C 280.269 214.050,277.500 213.291,275.385 212.623 C 271.236 211.312,266.452 210.317,262.769 209.998 C 254.559 209.288,250.339 208.503,244.615 206.623 C 240.340 205.218,235.624 204.197,231.846 203.857 C 223.345 203.095,218.276 202.174,213.385 200.506 C 209.206 199.081,202.291 197.744,197.231 197.382 C 192.812 197.067,185.857 195.761,182.462 194.609 C 180.685 194.007,178.192 193.234,176.923 192.893 C 170.304 191.113,167.864 188.955,166.154 183.369 C 164.863 179.154,163.849 176.736,162.895 175.603 C 161.756 174.250,160.807 172.200,159.874 169.077 C 158.970 166.054,157.557 162.401,157.193 162.148 C 156.454 161.634,154.617 157.875,153.813 155.232 C 152.108 149.623,152.168 149.761,150.131 146.719 C 148.901 144.883,148.798 144.636,147.243 139.766 C 146.126 136.265,145.959 135.914,143.977 132.902 C 143.372 131.983,142.408 130.055,141.835 128.618 C 140.277 124.708,138.446 123.518,136.939 125.435 M126.435 140.394 C 125.510 141.104,126.362 145.846,127.414 145.846 C 128.655 145.846,128.957 147.128,129.667 155.385 C 130.173 161.281,130.906 163.835,132.365 164.796 C 134.158 165.976,134.866 168.128,135.849 175.385 C 136.090 177.162,136.507 179.377,136.776 180.308 C 137.044 181.238,137.344 182.324,137.442 182.719 C 137.540 183.115,137.957 183.775,138.368 184.187 C 139.758 185.576,142.137 192.676,142.151 195.475 C 142.160 197.251,143.806 202.459,144.965 204.377 C 146.374 206.710,147.390 209.871,148.135 214.243 C 148.574 216.821,148.850 218.027,149.736 221.231 C 149.853 221.654,150.245 222.485,150.608 223.077 C 152.657 226.421,153.662 229.405,154.647 235.077 C 156.361 244.934,157.389 245.520,174.615 246.463 C 178.169 246.657,182.531 247.019,184.308 247.267 C 190.226 248.093,197.436 249.211,197.875 249.370 C 201.849 250.816,209.231 250.376,213.145 248.458 C 216.742 246.696,216.778 246.683,221.109 245.543 C 227.418 243.882,229.924 241.141,227.604 238.437 C 226.192 236.790,217.838 235.088,208.923 234.630 C 194.865 233.909,183.858 232.540,176.308 230.573 C 175.377 230.331,172.940 229.933,170.893 229.690 C 161.883 228.619,160.535 227.860,158.988 222.984 C 158.516 221.497,157.366 218.690,156.432 216.748 C 155.104 213.987,154.497 212.198,153.647 208.549 C 152.429 203.320,151.733 201.339,150.585 199.834 C 149.475 198.379,148.695 196.181,147.529 191.231 C 146.213 185.641,145.907 184.801,144.265 182.269 C 142.619 179.730,142.430 179.179,141.375 173.846 C 140.198 167.894,139.590 166.299,137.800 164.464 C 136.033 162.653,136.220 163.179,135.258 157.328 C 134.030 149.861,133.188 147.962,130.416 146.400 C 129.203 145.717,129.117 145.578,127.834 142.231 C 127.364 141.004,126.966 140.004,126.951 140.010 C 126.936 140.015,126.703 140.188,126.435 140.394 M126.981 143.308 C 126.904 143.604,126.841 143.362,126.841 142.769 C 126.841 142.177,126.904 141.935,126.981 142.231 C 127.059 142.527,127.059 143.012,126.981 143.308 M147.596 147.923 C 150.583 150.757,150.937 155.322,148.007 153.236 C 146.384 152.080,145.249 148.413,146.215 147.446 C 146.681 146.980,146.557 146.937,147.596 147.923 M130.997 147.885 C 132.441 148.272,133.467 151.051,134.448 157.231 C 135.058 161.077,135.792 163.080,137.167 164.656 C 138.281 165.933,139.242 167.803,139.517 169.231 C 140.496 174.297,141.688 178.572,142.610 180.319 C 145.013 184.874,145.530 186.214,146.560 190.550 C 147.423 194.182,148.017 195.872,149.500 198.919 C 150.923 201.840,151.579 203.671,152.294 206.712 C 153.457 211.657,153.758 212.510,155.695 216.344 C 156.553 218.041,157.466 220.285,157.724 221.330 C 159.393 228.093,161.318 229.829,167.169 229.851 C 168.534 229.856,179.178 231.528,179.633 231.809 C 180.117 232.109,188.524 233.669,192.154 234.133 C 195.390 234.547,204.276 235.270,211.385 235.698 C 222.968 236.395,228.000 237.677,228.000 239.929 C 228.000 242.105,226.125 243.432,221.351 244.635 C 217.912 245.502,214.287 246.922,213.236 247.816 C 210.451 250.182,202.803 250.126,190.769 247.651 C 185.666 246.601,178.020 245.752,169.077 245.240 C 158.322 244.625,156.776 243.696,155.832 237.283 C 154.982 231.505,154.482 229.829,152.132 224.875 C 150.844 222.162,149.846 219.649,149.846 219.121 C 149.846 215.940,148.025 209.437,145.934 205.154 C 144.203 201.608,143.889 200.691,143.523 198.116 C 142.626 191.793,141.348 187.861,138.738 183.385 C 137.916 181.975,137.634 180.946,137.048 177.231 C 135.634 168.249,134.995 166.269,132.901 164.385 C 131.478 163.104,131.442 163.026,131.123 160.539 C 130.944 159.142,130.636 156.754,130.438 155.231 C 129.924 151.274,129.737 147.692,130.044 147.697 C 130.189 147.699,130.618 147.784,130.997 147.885 M154.372 162.279 C 156.345 164.520,157.369 170.979,155.606 170.059 C 153.076 168.739,151.385 165.559,151.385 162.124 L 151.385 159.984 152.272 160.443 C 152.761 160.696,153.706 161.522,154.372 162.279 M161.171 177.323 C 162.210 178.885,163.187 184.623,162.651 186.018 C 162.298 186.938,160.470 185.375,158.600 182.553 C 157.550 180.969,157.538 180.917,157.538 177.534 L 157.538 174.116 158.966 175.135 C 159.751 175.695,160.743 176.680,161.171 177.323 M165.369 189.528 C 165.845 189.840,166.741 190.767,167.360 191.586 C 168.680 193.334,169.386 193.719,172.736 194.514 C 176.669 195.447,179.077 196.311,179.077 196.788 C 179.077 197.504,182.848 199.067,184.996 199.242 C 186.056 199.328,187.338 199.522,187.846 199.674 C 188.354 199.826,192.471 200.111,196.995 200.308 C 204.395 200.630,205.426 200.741,207.271 201.410 C 208.398 201.819,209.525 202.154,209.774 202.154 C 210.023 202.154,210.747 202.674,211.383 203.311 C 213.236 205.164,217.401 205.923,228.615 206.452 C 236.266 206.813,237.692 206.969,238.609 207.547 C 238.951 207.763,239.669 208.031,240.205 208.142 C 240.740 208.254,241.595 208.717,242.104 209.173 C 243.634 210.541,243.793 210.634,245.231 211.000 C 248.591 211.855,254.487 212.451,262.769 212.772 C 265.392 212.874,267.815 213.069,268.154 213.206 C 268.492 213.342,269.531 213.699,270.462 213.998 C 272.464 214.641,275.578 216.149,276.211 216.782 C 276.458 217.029,276.798 217.231,276.967 217.231 C 277.491 217.231,278.154 218.078,278.154 218.747 C 278.154 219.098,277.958 219.385,277.720 219.385 C 277.481 219.385,276.917 219.822,276.467 220.357 C 276.018 220.891,274.938 221.895,274.069 222.588 L 272.488 223.846 269.398 223.846 C 266.242 223.846,262.445 222.941,261.691 222.010 C 261.173 221.370,259.014 220.403,257.284 220.036 C 256.383 219.845,255.409 219.563,255.121 219.408 C 254.528 219.091,247.544 218.606,236.973 218.150 C 228.655 217.790,224.795 217.056,221.846 215.272 C 218.725 213.383,215.191 212.780,204.462 212.302 C 190.375 211.675,185.639 210.942,183.704 209.088 C 182.463 207.899,178.736 206.995,174.747 206.915 C 170.649 206.832,169.250 206.199,169.213 204.407 C 169.183 202.997,167.944 200.865,166.568 199.858 C 164.103 198.054,162.558 192.257,163.521 188.421 L 163.742 187.539 164.123 188.250 C 164.332 188.640,164.893 189.216,165.369 189.528 M155.213 264.752 C 155.541 265.015,156.026 265.220,156.290 265.206 C 156.704 265.185,156.706 265.159,156.308 265.011 C 156.054 264.917,155.569 264.713,155.231 264.557 C 154.625 264.278,154.625 264.281,155.213 264.752 M159.748 265.522 C 161.048 265.658,162.502 265.857,162.979 265.966 C 163.757 266.142,163.783 266.124,163.231 265.792 C 162.892 265.588,161.438 265.388,160.000 265.348 L 157.385 265.274 159.748 265.522 " stroke="none" fill="#45b0aa" fill-rule="evenodd"></path><path id="path1" d="M0.000 153.846 L 0.000 307.692 142.154 307.692 L 284.308 307.692 284.308 306.626 C 284.308 303.845,286.058 302.458,290.348 301.839 C 298.010 300.734,301.693 302.081,302.082 306.131 L 302.232 307.692 351.116 307.692 L 400.000 307.692 400.000 153.846 L 400.000 0.000 200.000 0.000 L 0.000 0.000 0.000 153.846 M214.281 21.899 C 214.885 22.604,215.658 23.926,215.999 24.836 C 216.980 27.460,217.713 28.681,219.098 30.000 C 221.535 32.322,222.087 33.449,222.641 37.231 C 222.951 39.345,223.888 41.040,225.497 42.397 C 229.720 45.958,227.851 49.692,221.846 49.692 C 218.012 49.692,217.003 49.306,214.823 47.005 C 213.181 45.272,211.864 44.606,208.614 43.867 C 204.601 42.954,203.759 42.204,201.840 37.834 C 200.017 33.680,201.665 27.717,205.317 25.255 C 205.964 24.818,207.617 23.596,208.989 22.538 C 212.061 20.171,212.733 20.090,214.281 21.899 M191.951 53.955 C 195.329 54.832,195.930 55.205,197.752 57.551 C 199.295 59.538,200.302 60.256,202.637 61.035 C 204.537 61.669,206.059 62.592,207.669 64.090 C 209.401 65.700,211.433 66.637,214.154 67.080 C 217.791 67.672,219.067 68.220,220.932 69.991 C 223.196 72.140,224.163 72.593,227.596 73.109 C 231.273 73.661,232.349 74.120,234.308 75.973 C 236.241 77.802,237.727 78.585,240.461 79.220 C 244.237 80.095,245.700 81.314,246.616 84.347 C 247.775 88.184,248.403 89.386,250.296 91.385 C 251.810 92.983,252.299 93.755,252.732 95.231 C 254.425 100.996,254.576 101.333,256.234 103.072 C 263.372 110.560,252.704 115.000,243.828 108.236 C 241.676 106.596,240.147 106.045,235.430 105.213 C 231.521 104.522,230.315 104.005,228.308 102.156 C 226.319 100.325,224.656 99.664,220.867 99.197 C 217.187 98.744,215.635 98.114,212.928 95.975 C 211.052 94.492,208.194 93.462,204.550 92.955 C 200.928 92.451,199.192 91.663,197.395 89.708 C 196.466 88.697,195.046 87.606,193.846 86.980 C 192.323 86.186,191.611 85.578,190.860 84.430 C 189.203 81.900,188.634 81.276,186.978 80.177 C 185.933 79.482,185.026 78.526,184.342 77.397 C 183.322 75.713,182.710 75.101,180.486 73.538 C 176.756 70.918,176.906 63.816,180.754 60.864 C 181.984 59.921,182.868 58.873,183.822 57.231 C 185.321 54.648,185.993 53.931,187.275 53.547 C 188.614 53.146,188.948 53.175,191.951 53.955 M170.769 82.136 C 171.395 82.573,173.409 85.675,174.357 87.662 C 174.471 87.900,175.330 88.900,176.267 89.887 C 177.204 90.873,178.462 92.553,179.063 93.620 C 180.601 96.356,180.632 96.396,182.000 97.386 C 183.693 98.612,184.567 99.614,185.308 101.182 C 185.925 102.485,186.787 103.487,188.941 105.404 C 189.523 105.923,190.656 107.053,191.457 107.916 C 192.967 109.542,194.491 110.154,197.027 110.154 C 199.202 110.154,201.676 111.086,204.308 112.896 C 207.516 115.103,209.001 115.628,213.564 116.165 C 217.994 116.687,219.963 117.416,222.253 119.382 C 224.350 121.181,225.625 121.612,230.923 122.311 C 235.978 122.979,237.302 123.464,239.794 125.561 C 242.172 127.563,243.508 128.016,248.740 128.596 C 253.075 129.076,254.844 129.666,256.716 131.254 C 259.021 133.208,261.019 134.167,263.804 134.653 C 269.647 135.673,269.768 135.773,272.208 141.623 C 272.721 142.855,273.718 144.429,274.644 145.469 C 277.595 148.787,280.277 156.620,279.134 158.583 C 277.933 160.647,277.465 160.774,271.283 160.722 C 264.247 160.663,261.993 160.071,258.706 157.415 C 256.343 155.505,254.566 154.964,249.538 154.625 C 244.047 154.255,242.292 153.687,239.077 151.240 C 236.840 149.539,234.488 148.919,227.900 148.298 C 224.052 147.936,222.435 147.345,219.338 145.173 C 217.058 143.574,214.915 142.867,211.077 142.449 C 203.815 141.658,202.437 141.245,199.385 138.947 C 197.194 137.298,195.171 136.663,190.534 136.171 C 186.393 135.731,185.168 135.186,183.548 133.062 C 183.119 132.500,181.938 131.388,180.922 130.590 C 179.421 129.410,178.869 128.709,177.968 126.835 C 177.303 125.454,176.143 123.761,175.068 122.606 C 173.181 120.577,172.582 119.561,171.364 116.315 C 170.804 114.825,170.129 113.817,168.688 112.315 C 167.468 111.046,166.300 109.403,165.510 107.846 C 164.706 106.262,163.677 104.821,162.622 103.805 C 157.817 99.173,157.334 88.063,161.811 85.148 C 162.423 84.749,163.685 83.924,164.615 83.314 C 167.813 81.216,169.100 80.970,170.769 82.136 M153.933 104.142 C 156.200 105.219,159.975 109.719,160.514 111.986 C 160.932 113.747,162.492 116.537,163.704 117.692 C 164.891 118.823,166.768 122.079,166.769 123.006 C 166.770 124.207,168.454 127.329,169.945 128.892 C 171.956 131.001,172.137 131.329,173.550 135.430 C 174.567 138.383,174.849 138.875,176.406 140.419 C 177.356 141.362,178.477 142.812,178.897 143.642 C 180.053 145.923,182.172 147.376,184.352 147.383 C 185.642 147.387,188.955 148.739,190.732 149.987 C 193.551 151.965,194.595 152.207,204.615 153.205 C 208.301 153.572,211.187 154.467,213.284 155.894 C 216.405 158.016,217.796 158.478,222.076 158.815 C 230.110 159.448,232.835 160.133,236.790 162.519 C 239.843 164.361,241.882 164.899,247.062 165.234 C 253.264 165.635,255.463 166.266,259.385 168.774 C 261.569 170.170,263.095 170.613,267.236 171.050 C 274.961 171.866,276.167 172.054,278.193 172.762 C 279.376 173.175,281.097 174.107,282.081 174.867 C 283.052 175.617,284.840 176.802,286.055 177.501 C 288.690 179.016,289.349 179.784,289.997 182.099 C 291.503 187.478,291.652 187.818,293.255 189.538 C 295.500 191.947,295.990 193.804,294.878 195.686 C 292.840 199.136,279.801 198.385,272.926 194.421 C 270.038 192.756,268.481 192.354,263.538 191.999 C 252.171 191.182,251.086 190.936,246.258 188.078 C 243.742 186.589,241.564 186.159,233.385 185.535 C 226.811 185.034,225.042 184.605,220.923 182.512 C 216.888 180.462,214.408 179.840,209.077 179.542 C 200.810 179.080,197.783 178.383,193.310 175.908 C 190.535 174.373,187.498 173.538,184.689 173.538 C 177.155 173.538,173.813 172.201,171.857 168.404 C 171.148 167.028,169.233 163.915,168.959 163.692 C 168.038 162.946,165.755 158.881,165.417 157.385 C 165.009 155.575,163.847 153.048,162.560 151.167 C 161.162 149.124,159.601 146.180,159.250 144.923 C 158.653 142.786,157.605 140.599,156.449 139.077 C 154.764 136.858,154.004 135.322,152.763 131.631 C 151.873 128.983,151.523 128.361,150.103 126.899 C 148.112 124.850,147.610 123.901,146.943 120.923 C 146.659 119.654,146.216 117.992,145.959 117.231 C 144.788 113.757,145.411 108.579,147.385 105.385 C 148.626 103.376,151.268 102.875,153.933 104.142 M140.321 121.000 C 140.886 121.381,141.959 122.454,142.706 123.385 C 143.453 124.315,144.868 125.920,145.850 126.949 C 147.598 128.783,148.296 130.215,148.311 132.000 C 148.316 132.653,148.868 135.045,149.732 138.154 C 149.849 138.577,150.749 139.860,151.732 141.006 C 153.331 142.870,154.468 145.200,154.459 146.594 C 154.456 147.147,156.086 152.759,156.298 152.923 C 157.581 153.918,160.335 158.866,160.720 160.867 C 161.317 163.974,162.572 167.134,164.121 169.435 C 166.400 172.820,166.575 173.219,167.545 177.231 C 168.552 181.394,168.670 181.657,170.565 183.942 C 171.363 184.905,172.465 186.315,173.014 187.077 C 174.514 189.157,175.599 189.553,180.668 189.871 C 187.675 190.309,190.880 191.057,195.539 193.341 C 198.803 194.940,200.299 195.215,208.308 195.687 C 218.037 196.261,222.185 197.066,226.197 199.162 C 229.395 200.833,230.529 201.118,235.538 201.511 C 237.738 201.684,241.452 201.973,243.791 202.154 C 250.128 202.643,253.281 203.375,257.483 205.331 C 261.596 207.246,262.957 207.515,271.001 208.000 C 281.820 208.652,284.049 209.190,290.915 212.805 C 297.273 216.152,298.529 218.260,295.743 220.910 C 294.492 222.100,294.023 222.249,288.308 223.263 C 285.562 223.750,285.255 223.883,283.245 225.454 C 278.823 228.910,273.493 229.802,262.308 228.959 C 249.295 227.978,246.596 227.565,243.077 226.012 C 237.946 223.748,235.764 223.334,226.769 222.922 C 213.007 222.291,209.327 221.701,202.769 219.072 C 198.780 217.473,198.011 217.350,188.462 216.785 C 171.370 215.776,170.036 215.488,166.489 212.041 C 165.160 210.749,163.380 209.060,162.534 208.288 C 160.823 206.726,159.991 204.585,158.893 198.923 C 158.149 195.088,157.740 194.247,155.672 192.308 L 153.868 190.615 153.534 187.846 C 152.630 180.349,150.841 176.350,149.385 178.572 C 147.639 181.236,150.226 191.385,152.651 191.385 C 152.801 191.385,152.923 191.592,152.923 191.846 C 152.923 192.100,153.044 192.308,153.191 192.308 C 153.515 192.308,154.098 194.315,154.440 196.615 C 155.703 205.093,156.071 206.563,157.363 208.273 C 159.916 211.654,160.728 213.966,161.690 220.600 C 162.415 225.602,162.937 225.900,171.692 226.309 C 189.227 227.129,194.241 227.800,201.574 230.307 C 205.116 231.518,208.737 231.975,217.385 232.301 C 236.202 233.011,238.028 233.276,239.491 235.510 C 240.476 237.013,239.478 239.630,237.437 240.891 C 236.871 241.241,235.560 242.480,234.525 243.645 C 232.231 246.227,231.670 246.503,226.615 247.548 C 222.538 248.391,221.546 248.819,218.000 251.261 C 214.873 253.415,213.210 253.698,204.000 253.645 C 190.083 253.565,176.648 252.346,169.265 250.494 C 167.846 250.138,166.442 249.846,166.146 249.846 C 165.850 249.846,164.450 249.522,163.034 249.125 C 161.619 248.729,159.492 248.225,158.308 248.007 C 153.487 247.118,153.452 247.077,152.614 241.374 C 151.814 235.931,151.801 235.889,150.764 235.122 L 149.883 234.470 149.671 235.927 C 149.555 236.729,149.412 237.646,149.354 237.967 C 149.112 239.312,149.949 245.088,150.507 245.920 C 150.821 246.387,151.361 247.188,151.707 247.700 C 152.963 249.555,154.387 253.459,155.071 256.923 C 156.159 262.441,156.179 262.458,161.942 262.792 C 169.962 263.256,172.923 264.617,172.923 267.840 C 172.923 270.400,171.532 271.317,165.882 272.481 C 162.384 273.202,162.150 273.309,158.876 275.682 C 156.433 277.452,152.065 278.043,149.622 276.934 C 147.443 275.945,146.892 274.515,145.720 266.812 C 145.335 264.279,145.004 263.205,144.108 261.581 C 140.865 255.708,140.551 254.636,139.999 247.538 C 139.527 241.475,139.288 240.546,137.381 237.385 C 134.835 233.163,134.118 230.343,133.704 222.923 C 133.401 217.506,132.940 216.070,130.741 213.692 C 130.271 213.185,129.543 211.731,129.124 210.462 C 128.401 208.274,128.228 207.021,127.363 197.717 C 126.956 193.337,126.922 193.238,125.094 190.992 C 122.555 187.876,122.081 186.034,121.555 177.231 C 121.236 171.886,120.866 170.501,119.138 168.173 C 116.177 164.185,115.860 163.010,115.852 156.000 C 115.845 149.976,115.987 149.434,117.995 147.812 C 121.573 144.923,121.303 145.379,121.558 141.807 C 121.947 136.358,122.745 134.813,125.491 134.198 C 127.267 133.800,131.385 135.514,131.385 136.652 C 131.385 136.783,131.786 136.751,132.276 136.580 C 133.446 136.173,133.663 134.777,133.372 129.527 C 133.163 125.741,133.183 125.545,133.943 123.885 C 135.322 120.872,138.199 119.570,140.321 121.000 M137.368 148.463 C 136.877 151.741,138.233 155.237,139.567 154.130 C 140.803 153.104,140.075 147.642,138.651 147.260 C 137.613 146.982,137.587 147.007,137.368 148.463 M143.412 162.822 C 142.586 165.192,143.341 170.627,144.673 171.898 L 145.587 172.769 146.213 172.000 C 147.497 170.423,146.290 163.174,144.598 162.299 C 143.773 161.872,143.738 161.888,143.412 162.822 M137.420 198.341 C 137.096 201.102,137.444 202.462,138.474 202.462 C 140.129 202.462,140.124 197.549,138.468 196.972 C 137.618 196.675,137.616 196.678,137.420 198.341 M143.519 217.435 C 143.149 220.399,143.603 223.337,144.560 224.162 C 145.583 225.044,145.759 224.731,146.011 221.587 C 146.249 218.628,145.635 216.265,144.554 215.976 C 143.748 215.761,143.724 215.795,143.519 217.435 " stroke="none" fill="#fbfbfb" fill-rule="evenodd"></path><path id="path2" d="M208.989 22.538 C 207.617 23.596,205.964 24.818,205.317 25.255 C 201.665 27.717,200.017 33.680,201.840 37.834 C 203.759 42.204,204.601 42.954,208.614 43.867 C 211.864 44.606,213.181 45.272,214.823 47.005 C 217.003 49.306,218.012 49.692,221.846 49.692 C 227.851 49.692,229.720 45.958,225.497 42.397 C 223.888 41.040,222.951 39.345,222.641 37.231 C 222.087 33.449,221.535 32.322,219.098 30.000 C 217.713 28.681,216.980 27.460,215.999 24.836 C 214.300 20.298,212.615 19.745,208.989 22.538 M213.109 26.796 C 213.298 26.953,213.972 28.335,214.607 29.867 C 215.344 31.645,216.151 33.031,216.836 33.696 C 218.819 35.622,220.168 39.253,219.961 42.110 C 219.897 42.995,220.076 43.539,220.687 44.320 C 221.133 44.889,221.425 45.474,221.335 45.619 C 221.084 46.026,219.288 45.554,218.755 44.942 C 217.911 43.971,215.891 42.869,212.901 41.749 C 206.245 39.256,203.299 35.580,205.167 32.097 C 207.181 28.343,211.499 25.460,213.109 26.796 M187.275 53.547 C 185.993 53.931,185.321 54.648,183.822 57.231 C 182.868 58.873,181.984 59.921,180.754 60.864 C 176.906 63.816,176.756 70.918,180.486 73.538 C 182.710 75.101,183.322 75.713,184.342 77.397 C 185.026 78.526,185.933 79.482,186.978 80.177 C 188.634 81.276,189.203 81.900,190.860 84.430 C 191.611 85.578,192.323 86.186,193.846 86.980 C 195.046 87.606,196.466 88.697,197.395 89.708 C 199.192 91.663,200.928 92.451,204.550 92.955 C 208.194 93.462,211.052 94.492,212.928 95.975 C 215.635 98.114,217.187 98.744,220.867 99.197 C 224.656 99.664,226.319 100.325,228.308 102.156 C 230.315 104.005,231.521 104.522,235.430 105.213 C 240.147 106.045,241.676 106.596,243.828 108.236 C 247.008 110.659,248.379 111.216,251.464 111.339 C 258.803 111.630,260.911 107.978,256.234 103.072 C 254.576 101.333,254.425 100.996,252.732 95.231 C 252.299 93.755,251.810 92.983,250.296 91.385 C 248.403 89.386,247.775 88.184,246.616 84.347 C 245.700 81.314,244.237 80.095,240.461 79.220 C 237.727 78.585,236.241 77.802,234.308 75.973 C 232.349 74.120,231.273 73.661,227.596 73.109 C 224.163 72.593,223.196 72.140,220.932 69.991 C 219.067 68.220,217.791 67.672,214.154 67.080 C 211.433 66.637,209.401 65.700,207.669 64.090 C 206.059 62.592,204.537 61.669,202.637 61.035 C 200.302 60.256,199.295 59.538,197.752 57.551 C 195.930 55.205,195.329 54.832,191.951 53.955 C 188.948 53.175,188.614 53.146,187.275 53.547 M192.361 57.548 C 193.166 57.772,193.963 58.414,195.130 59.777 C 197.116 62.097,197.286 62.239,199.242 63.211 C 200.094 63.634,201.687 64.817,202.780 65.839 C 204.935 67.852,206.270 68.485,210.308 69.407 C 211.662 69.716,213.286 70.288,213.917 70.677 C 214.548 71.066,215.191 71.385,215.346 71.385 C 215.500 71.385,215.704 71.586,215.799 71.833 C 216.230 72.958,220.600 74.820,224.923 75.722 C 225.854 75.916,227.181 76.405,227.873 76.807 C 228.565 77.209,229.361 77.538,229.642 77.538 C 229.924 77.538,230.154 77.749,230.154 78.007 C 230.154 78.748,232.749 80.200,235.966 81.258 C 240.910 82.885,243.483 85.373,245.017 90.012 C 245.847 92.522,247.201 94.779,248.005 94.989 C 249.113 95.279,250.841 100.037,251.166 103.692 C 251.242 104.551,251.453 105.115,251.721 105.177 C 251.959 105.232,252.475 105.680,252.867 106.174 L 253.580 107.071 252.814 107.420 C 251.720 107.919,249.906 107.492,248.918 106.504 C 247.525 105.111,244.980 104.004,240.988 103.056 C 236.694 102.036,234.268 101.096,233.833 100.283 C 233.348 99.376,229.902 97.906,226.619 97.206 C 220.822 95.969,218.286 95.056,217.982 94.097 C 217.686 93.165,214.395 91.734,210.689 90.927 C 205.958 89.896,203.733 89.063,202.462 87.844 C 201.869 87.276,199.739 85.950,197.728 84.897 C 195.046 83.493,193.938 82.738,193.574 82.069 C 192.797 80.642,190.649 78.202,189.287 77.201 C 188.605 76.700,187.561 75.567,186.966 74.683 C 185.523 72.542,183.684 70.571,182.913 70.341 C 181.017 69.776,180.567 66.134,182.205 64.620 C 184.471 62.526,184.970 61.944,185.625 60.637 C 187.235 57.423,188.998 56.614,192.361 57.548 M167.385 81.750 C 166.792 82.000,165.546 82.703,164.615 83.314 C 163.685 83.924,162.423 84.749,161.811 85.148 C 157.334 88.063,157.817 99.173,162.622 103.805 C 163.677 104.821,164.706 106.262,165.510 107.846 C 166.300 109.403,167.468 111.046,168.688 112.315 C 170.129 113.817,170.804 114.825,171.364 116.315 C 172.582 119.561,173.181 120.577,175.068 122.606 C 176.143 123.761,177.303 125.454,177.968 126.835 C 178.869 128.709,179.421 129.410,180.922 130.590 C 181.938 131.388,183.119 132.500,183.548 133.062 C 185.168 135.186,186.393 135.731,190.534 136.171 C 195.171 136.663,197.194 137.298,199.385 138.947 C 202.437 141.245,203.815 141.658,211.077 142.449 C 214.915 142.867,217.058 143.574,219.338 145.173 C 222.435 147.345,224.052 147.936,227.900 148.298 C 234.488 148.919,236.840 149.539,239.077 151.240 C 242.292 153.687,244.047 154.255,249.538 154.625 C 254.566 154.964,256.343 155.505,258.706 157.415 C 263.895 161.608,276.939 162.354,279.134 158.583 C 280.277 156.620,277.595 148.787,274.644 145.469 C 273.718 144.429,272.721 142.855,272.208 141.623 C 269.768 135.773,269.647 135.673,263.804 134.653 C 261.019 134.167,259.021 133.208,256.716 131.254 C 254.844 129.666,253.075 129.076,248.740 128.596 C 243.508 128.016,242.172 127.563,239.794 125.561 C 237.302 123.464,235.978 122.979,230.923 122.311 C 225.625 121.612,224.350 121.181,222.253 119.382 C 219.963 117.416,217.994 116.687,213.564 116.165 C 209.001 115.628,207.516 115.103,204.308 112.896 C 201.676 111.086,199.202 110.154,197.027 110.154 C 194.491 110.154,192.967 109.542,191.457 107.916 C 190.656 107.053,189.523 105.923,188.941 105.404 C 186.787 103.487,185.925 102.485,185.308 101.182 C 184.567 99.614,183.693 98.612,182.000 97.386 C 180.632 96.396,180.601 96.356,179.063 93.620 C 178.462 92.553,177.204 90.873,176.267 89.887 C 175.330 88.900,174.471 87.900,174.357 87.662 C 171.846 82.400,169.853 80.711,167.385 81.750 M169.233 87.232 C 169.766 87.507,170.622 88.536,171.348 89.770 C 172.055 90.973,173.323 92.505,174.361 93.412 C 175.446 94.360,176.513 95.664,177.063 96.717 C 177.564 97.673,178.826 99.289,179.869 100.307 C 180.930 101.342,182.399 103.248,183.202 104.631 C 186.390 110.116,189.145 111.845,198.400 114.162 C 199.149 114.350,199.803 114.721,199.907 115.016 C 200.473 116.636,202.594 117.448,209.705 118.766 C 211.404 119.081,213.135 119.483,213.551 119.659 C 213.967 119.835,214.880 120.123,215.580 120.300 C 216.408 120.508,216.907 120.827,217.007 121.211 C 217.292 122.301,220.581 123.625,225.450 124.610 C 232.015 125.939,234.305 126.715,234.623 127.717 C 234.924 128.665,239.379 130.209,244.308 131.073 C 248.449 131.799,251.273 132.756,251.715 133.581 C 252.233 134.550,254.791 135.609,259.106 136.642 C 261.571 137.233,263.662 137.921,264.302 138.353 C 264.891 138.751,265.515 139.083,265.687 139.091 C 266.355 139.123,268.704 142.544,269.695 144.930 C 270.862 147.738,270.972 147.908,272.871 149.846 C 277.228 154.292,275.710 159.201,270.431 157.733 C 269.438 157.457,268.298 157.231,267.898 157.231 C 266.900 157.231,265.295 156.387,264.904 155.658 C 264.191 154.325,260.687 153.281,251.220 151.582 C 246.923 150.811,245.255 150.236,244.871 149.394 C 244.392 148.343,242.038 147.473,237.231 146.570 C 227.037 144.657,225.902 144.335,224.985 143.095 C 224.155 141.972,222.001 141.163,218.000 140.473 C 208.880 138.899,205.733 138.022,205.395 136.957 C 205.292 136.631,204.970 136.268,204.681 136.151 C 202.472 135.254,200.299 134.679,197.100 134.146 C 188.746 132.754,187.810 132.438,186.899 130.708 C 186.659 130.251,185.527 129.226,184.385 128.430 C 182.306 126.981,180.639 125.355,180.624 124.761 C 180.610 124.234,178.498 119.989,177.817 119.120 C 177.467 118.673,176.659 117.750,176.021 117.068 C 175.384 116.386,174.311 114.651,173.637 113.213 C 172.797 111.421,171.921 110.115,170.855 109.066 C 169.293 107.528,168.851 106.815,167.114 103.036 C 166.541 101.789,165.402 100.152,164.187 98.828 C 161.977 96.420,161.608 95.316,161.940 92.100 C 162.307 88.551,166.444 85.789,169.233 87.232 M149.046 103.807 C 147.669 104.431,146.791 106.081,145.833 109.845 C 144.937 113.368,144.952 114.243,145.959 117.231 C 146.216 117.992,146.659 119.654,146.943 120.923 C 147.610 123.901,148.112 124.850,150.103 126.899 C 151.523 128.361,151.873 128.983,152.763 131.631 C 154.004 135.322,154.764 136.858,156.449 139.077 C 157.605 140.599,158.653 142.786,159.250 144.923 C 159.601 146.180,161.162 149.124,162.560 151.167 C 163.847 153.048,165.009 155.575,165.417 157.385 C 165.755 158.881,168.038 162.946,168.959 163.692 C 169.233 163.915,171.148 167.028,171.857 168.404 C 173.813 172.201,177.155 173.538,184.689 173.538 C 187.498 173.538,190.535 174.373,193.310 175.908 C 197.783 178.383,200.810 179.080,209.077 179.542 C 214.408 179.840,216.888 180.462,220.923 182.512 C 225.042 184.605,226.811 185.034,233.385 185.535 C 241.564 186.159,243.742 186.589,246.258 188.078 C 251.086 190.936,252.171 191.182,263.538 191.999 C 268.481 192.354,270.038 192.756,272.926 194.421 C 279.801 198.385,292.840 199.136,294.878 195.686 C 295.990 193.804,295.500 191.947,293.255 189.538 C 291.652 187.818,291.503 187.478,289.997 182.099 C 289.349 179.784,288.690 179.016,286.055 177.501 C 284.840 176.802,283.052 175.617,282.081 174.867 C 281.097 174.107,279.376 173.175,278.193 172.762 C 276.167 172.054,274.961 171.866,267.236 171.050 C 263.095 170.613,261.569 170.170,259.385 168.774 C 255.463 166.266,253.264 165.635,247.062 165.234 C 241.882 164.899,239.843 164.361,236.790 162.519 C 232.835 160.133,230.110 159.448,222.076 158.815 C 217.796 158.478,216.405 158.016,213.284 155.894 C 211.187 154.467,208.301 153.572,204.615 153.205 C 194.595 152.207,193.551 151.965,190.732 149.987 C 188.955 148.739,185.642 147.387,184.352 147.383 C 182.172 147.376,180.053 145.923,178.897 143.642 C 178.477 142.812,177.356 141.362,176.406 140.419 C 174.849 138.875,174.567 138.383,173.550 135.430 C 172.137 131.329,171.956 131.001,169.945 128.892 C 168.454 127.329,166.770 124.207,166.769 123.006 C 166.768 122.079,164.891 118.823,163.704 117.692 C 162.492 116.537,160.932 113.747,160.514 111.986 C 159.339 107.042,152.567 102.211,149.046 103.807 M153.692 107.789 C 157.713 112.237,157.836 112.419,158.711 115.234 C 159.372 117.360,160.162 118.699,162.651 121.907 C 163.414 122.891,164.244 124.501,164.741 125.964 C 165.878 129.312,166.200 129.855,168.149 131.715 C 169.342 132.854,169.956 133.720,170.189 134.595 C 171.457 139.345,172.467 141.352,174.278 142.720 C 175.321 143.507,176.290 144.634,177.068 145.965 C 178.393 148.231,179.932 149.373,182.135 149.725 C 182.844 149.838,183.906 150.258,184.495 150.658 C 185.084 151.058,185.750 151.385,185.976 151.385 C 186.202 151.385,186.558 151.591,186.768 151.844 C 188.282 153.669,192.228 154.742,199.846 155.402 C 205.090 155.856,206.065 156.143,209.693 158.301 C 211.510 159.382,213.499 160.340,214.113 160.430 C 219.547 161.225,222.168 161.567,225.050 161.856 C 228.691 162.221,229.516 162.530,233.013 164.838 C 235.373 166.397,237.661 166.909,246.615 167.882 C 251.228 168.383,253.265 169.034,255.066 170.585 C 257.111 172.345,260.244 173.129,268.157 173.858 C 273.918 174.389,274.957 174.738,279.049 177.519 C 280.134 178.256,281.588 179.033,282.280 179.245 C 286.187 180.445,287.057 181.263,287.664 184.308 C 288.736 189.691,288.450 188.946,290.401 191.455 C 293.815 195.843,286.408 196.693,278.615 192.806 C 276.415 191.709,274.338 190.737,274.000 190.646 C 272.719 190.304,263.774 189.234,262.154 189.230 C 258.202 189.220,255.158 188.389,251.508 186.324 C 248.149 184.422,245.846 183.917,237.385 183.226 C 230.263 182.644,228.069 182.087,224.562 179.968 C 221.735 178.259,219.144 177.751,209.015 176.919 C 204.173 176.521,202.162 175.975,198.462 174.053 C 194.434 171.961,192.936 171.648,182.769 170.767 C 178.132 170.365,174.462 168.634,174.462 166.850 C 174.462 166.034,171.564 160.910,170.832 160.430 C 169.078 159.281,168.028 157.490,167.551 154.833 C 166.889 151.152,166.193 149.657,164.278 147.808 C 162.246 145.845,161.958 145.325,161.490 142.769 C 160.755 138.756,160.028 137.184,158.075 135.385 C 156.089 133.555,155.803 133.039,155.346 130.462 C 154.670 126.650,153.936 125.094,151.859 123.067 C 149.823 121.078,149.864 121.167,148.789 116.552 C 147.994 113.144,148.222 110.194,149.465 107.779 C 150.318 106.124,152.191 106.128,153.692 107.789 M136.194 121.236 C 133.713 122.810,133.100 124.609,133.372 129.527 C 133.663 134.777,133.446 136.173,132.276 136.580 C 131.786 136.751,131.385 136.783,131.385 136.652 C 131.385 135.514,127.267 133.800,125.491 134.198 C 122.745 134.813,121.947 136.358,121.558 141.807 C 121.303 145.379,121.573 144.923,117.995 147.812 C 115.987 149.434,115.845 149.976,115.852 156.000 C 115.860 163.010,116.177 164.185,119.138 168.173 C 120.866 170.501,121.236 171.886,121.555 177.231 C 122.081 186.034,122.555 187.876,125.094 190.992 C 126.922 193.238,126.956 193.337,127.363 197.717 C 128.228 207.021,128.401 208.274,129.124 210.462 C 129.543 211.731,130.271 213.185,130.741 213.692 C 132.940 216.070,133.401 217.506,133.704 222.923 C 134.118 230.343,134.835 233.163,137.381 237.385 C 139.288 240.546,139.527 241.475,139.999 247.538 C 140.551 254.636,140.865 255.708,144.108 261.581 C 145.004 263.205,145.335 264.279,145.720 266.812 C 146.892 274.515,147.443 275.945,149.622 276.934 C 152.065 278.043,156.433 277.452,158.876 275.682 C 162.150 273.309,162.384 273.202,165.882 272.481 C 171.532 271.317,172.923 270.400,172.923 267.840 C 172.923 264.617,169.962 263.256,161.942 262.792 C 156.179 262.458,156.159 262.441,155.071 256.923 C 154.387 253.459,152.963 249.555,151.707 247.700 C 151.361 247.188,150.821 246.387,150.507 245.920 C 149.949 245.088,149.112 239.312,149.354 237.967 C 149.412 237.646,149.555 236.729,149.671 235.927 L 149.883 234.470 150.764 235.122 C 151.801 235.889,151.814 235.931,152.614 241.374 C 153.452 247.077,153.487 247.118,158.308 248.007 C 159.492 248.225,161.619 248.729,163.034 249.125 C 164.450 249.522,165.850 249.846,166.146 249.846 C 166.442 249.846,167.846 250.138,169.265 250.494 C 176.648 252.346,190.083 253.565,204.000 253.645 C 213.210 253.698,214.873 253.415,218.000 251.261 C 221.546 248.819,222.538 248.391,226.615 247.548 C 231.670 246.503,232.231 246.227,234.525 243.645 C 235.560 242.480,236.871 241.241,237.437 240.891 C 239.478 239.630,240.476 237.013,239.491 235.510 C 238.028 233.276,236.202 233.011,217.385 232.301 C 208.737 231.975,205.116 231.518,201.574 230.307 C 194.241 227.800,189.227 227.129,171.692 226.309 C 162.937 225.900,162.415 225.602,161.690 220.600 C 160.728 213.966,159.916 211.654,157.363 208.273 C 156.071 206.563,155.703 205.093,154.440 196.615 C 154.098 194.315,153.515 192.308,153.191 192.308 C 153.044 192.308,152.923 192.100,152.923 191.846 C 152.923 191.592,152.801 191.385,152.651 191.385 C 150.226 191.385,147.639 181.236,149.385 178.572 C 150.841 176.350,152.630 180.349,153.534 187.846 L 153.868 190.615 155.672 192.308 C 157.740 194.247,158.149 195.088,158.893 198.923 C 159.991 204.585,160.823 206.726,162.534 208.288 C 163.380 209.060,165.160 210.749,166.489 212.041 C 170.036 215.488,171.370 215.776,188.462 216.785 C 198.011 217.350,198.780 217.473,202.769 219.072 C 209.327 221.701,213.007 222.291,226.769 222.922 C 235.764 223.334,237.946 223.748,243.077 226.012 C 245.544 227.100,249.467 227.931,253.846 228.293 C 273.809 229.943,278.021 229.536,283.245 225.454 C 285.255 223.883,285.562 223.750,288.308 223.263 C 294.023 222.249,294.492 222.100,295.743 220.910 C 298.529 218.260,297.273 216.152,290.915 212.805 C 284.049 209.190,281.820 208.652,271.001 208.000 C 262.957 207.515,261.596 207.246,257.483 205.331 C 253.281 203.375,250.128 202.643,243.791 202.154 C 229.331 201.037,230.004 201.152,226.197 199.162 C 222.185 197.066,218.037 196.261,208.308 195.687 C 200.299 195.215,198.803 194.940,195.539 193.341 C 190.880 191.057,187.675 190.309,180.668 189.871 C 175.599 189.553,174.514 189.157,173.014 187.077 C 172.465 186.315,171.363 184.905,170.565 183.942 C 168.670 181.657,168.552 181.394,167.545 177.231 C 166.575 173.219,166.400 172.820,164.121 169.435 C 162.572 167.134,161.317 163.974,160.720 160.867 C 160.335 158.866,157.581 153.918,156.298 152.923 C 156.086 152.759,154.456 147.147,154.459 146.594 C 154.468 145.200,153.331 142.870,151.732 141.006 C 150.749 139.860,149.849 138.577,149.732 138.154 C 148.868 135.045,148.316 132.653,148.311 132.000 C 148.296 130.215,147.598 128.783,145.850 126.949 C 144.868 125.920,143.453 124.315,142.706 123.385 C 140.125 120.169,138.647 119.681,136.194 121.236 M140.205 124.238 C 140.572 124.530,141.312 125.525,141.850 126.448 C 142.388 127.371,143.432 128.896,144.171 129.836 C 145.658 131.729,146.265 133.191,146.975 136.591 C 147.597 139.570,148.313 141.192,149.953 143.328 C 151.764 145.689,152.123 146.463,152.897 149.692 C 153.806 153.482,154.250 154.526,156.193 157.452 C 158.149 160.397,158.791 161.915,159.660 165.644 C 160.378 168.728,161.223 170.597,162.655 172.271 C 164.181 174.053,164.910 175.703,165.547 178.811 C 166.296 182.468,167.255 184.652,168.636 185.846 C 168.734 185.931,169.482 186.831,170.300 187.846 C 172.903 191.082,173.005 191.121,182.154 192.481 C 184.274 192.797,186.618 193.376,188.000 193.926 C 193.850 196.255,199.351 197.533,203.587 197.548 C 207.558 197.562,216.568 198.778,218.308 199.535 C 224.333 202.156,228.676 203.316,233.324 203.546 C 242.055 203.976,247.432 204.878,251.934 206.669 C 258.107 209.124,259.864 209.463,269.846 210.131 C 275.250 210.493,279.965 211.390,282.720 212.579 C 283.847 213.066,285.600 213.747,286.615 214.092 C 295.006 216.946,295.821 219.731,288.615 220.923 C 284.908 221.536,283.073 222.241,280.368 224.094 C 277.336 226.170,275.722 226.672,271.231 226.934 C 265.201 227.285,253.959 226.056,249.692 224.580 C 241.995 221.917,237.973 221.220,227.692 220.766 C 220.406 220.444,214.976 219.652,210.923 218.322 C 202.804 215.657,200.285 215.183,192.020 214.770 C 175.567 213.948,170.311 212.471,165.928 207.442 C 162.072 203.017,161.407 201.593,160.628 196.094 C 160.259 193.488,159.236 191.041,157.889 189.538 C 156.505 187.995,155.815 186.404,155.087 183.077 C 153.956 177.907,153.874 177.614,153.080 175.948 C 152.649 175.046,151.756 173.689,151.093 172.933 C 149.765 171.416,149.258 169.929,148.466 165.231 C 147.848 161.562,146.962 159.608,145.116 157.850 C 143.469 156.280,143.140 155.362,142.341 150.099 C 141.737 146.121,140.853 143.691,139.573 142.487 C 139.046 141.991,138.183 141.188,137.654 140.702 C 136.553 139.689,136.011 137.738,135.981 134.677 C 135.971 133.628,135.858 131.731,135.731 130.462 C 135.190 125.049,137.388 121.991,140.205 124.238 M128.205 137.095 C 128.772 137.528,129.506 138.409,129.835 139.054 C 130.164 139.699,131.337 141.110,132.441 142.190 L 134.450 144.154 134.776 146.615 C 135.846 154.678,136.650 157.362,138.789 160.000 C 140.198 161.738,140.163 161.631,141.268 167.538 C 142.178 172.399,143.125 175.204,144.488 177.077 C 145.854 178.952,146.446 180.626,147.378 185.247 C 148.251 189.573,149.377 192.975,150.328 194.154 C 151.591 195.720,152.708 198.812,153.587 203.175 C 154.310 206.766,154.799 208.380,155.700 210.154 C 156.345 211.423,157.365 213.431,157.966 214.615 C 158.641 215.945,159.244 217.771,159.543 219.385 C 160.977 227.141,161.345 227.437,170.283 228.005 C 179.713 228.605,186.254 229.503,193.385 231.178 C 201.016 232.971,205.445 233.512,217.692 234.148 C 234.825 235.037,237.114 235.779,234.198 239.495 C 230.332 244.421,229.888 244.727,224.769 245.986 C 220.646 247.000,218.517 247.804,216.949 248.940 C 211.826 252.651,200.392 252.891,181.656 249.681 C 175.114 248.560,174.117 248.405,166.923 247.401 C 156.084 245.887,155.023 245.296,154.419 240.431 C 153.696 234.606,152.657 231.571,150.503 228.997 C 149.066 227.279,148.804 226.392,148.156 221.077 C 147.247 213.624,145.383 209.231,143.128 209.231 C 142.076 209.231,141.846 208.290,141.846 203.984 C 141.846 191.358,136.744 184.927,135.662 196.189 C 134.881 204.317,136.032 208.212,139.369 208.735 C 141.556 209.078,141.538 209.032,141.538 214.523 C 141.538 225.350,142.202 228.499,144.912 230.525 C 146.523 231.730,146.846 232.603,147.352 237.105 C 147.541 238.782,147.893 241.901,148.136 244.036 C 148.590 248.034,149.555 251.152,150.738 252.445 C 151.675 253.468,152.859 256.079,153.541 258.625 C 154.797 263.312,155.239 263.660,160.432 264.045 C 166.603 264.503,169.846 265.755,169.846 267.681 C 169.846 269.340,168.285 270.174,162.308 271.708 C 161.462 271.925,159.662 272.631,158.308 273.277 C 150.490 277.007,148.688 275.605,147.067 264.530 C 146.431 260.191,145.628 257.553,144.610 256.461 C 142.853 254.576,141.939 250.983,141.086 242.615 C 140.528 237.144,140.101 235.503,138.761 233.692 C 136.352 230.436,135.584 227.607,135.213 220.615 C 134.884 214.429,134.436 212.582,132.797 210.664 C 130.158 207.575,129.608 205.475,129.239 197.077 C 128.953 190.566,128.570 188.463,127.576 187.951 C 124.365 186.300,123.401 182.920,123.391 173.287 C 123.384 166.552,123.408 166.464,125.575 165.366 C 129.256 163.501,129.733 153.617,126.219 152.016 C 124.428 151.200,123.393 153.684,122.765 160.308 C 122.272 165.494,120.326 165.726,118.367 160.831 C 116.476 156.108,117.427 150.660,120.442 148.934 C 123.038 147.449,123.812 145.823,123.667 142.154 C 123.541 138.929,123.649 138.444,124.738 137.354 C 125.989 136.103,126.823 136.041,128.205 137.095 M138.651 147.260 C 140.075 147.642,140.803 153.104,139.567 154.130 C 138.233 155.237,136.877 151.741,137.368 148.463 C 137.587 147.007,137.613 146.982,138.651 147.260 M146.002 164.677 C 146.887 167.779,146.982 171.056,146.213 172.000 L 145.587 172.769 144.673 171.898 C 143.341 170.627,142.586 165.192,143.412 162.822 C 143.972 161.216,145.282 162.154,146.002 164.677 M130.623 172.254 C 129.423 174.091,128.707 183.396,129.609 185.447 C 130.525 187.531,133.712 187.287,134.641 185.062 C 136.839 179.801,133.224 168.276,130.623 172.254 M139.529 198.660 C 139.886 201.041,139.492 202.462,138.474 202.462 C 137.444 202.462,137.096 201.102,137.420 198.341 C 137.688 196.061,139.173 196.285,139.529 198.660 M145.778 217.868 C 146.172 219.523,146.084 223.003,145.616 224.254 C 145.388 224.863,145.371 224.861,144.560 224.162 C 143.603 223.337,143.149 220.399,143.519 217.435 C 143.822 215.012,145.158 215.267,145.778 217.868 M289.385 301.979 C 285.803 302.659,284.308 304.028,284.308 306.626 L 284.308 307.692 288.462 307.692 C 291.578 307.692,292.616 307.596,292.617 307.308 C 292.620 306.735,294.371 305.846,295.495 305.846 C 296.609 305.846,297.846 306.584,297.846 307.248 C 297.846 307.594,298.333 307.692,300.039 307.692 L 302.232 307.692 302.082 306.131 C 301.690 302.047,297.038 300.526,289.385 301.979 " stroke="none" fill="#a0c0bf" fill-rule="evenodd"></path><path id="path3" d="M126.841 142.769 C 126.841 143.362,126.904 143.604,126.981 143.308 C 127.059 143.012,127.059 142.527,126.981 142.231 C 126.904 141.935,126.841 142.177,126.841 142.769 M146.215 147.446 C 145.249 148.413,146.384 152.080,148.007 153.236 C 150.937 155.322,150.583 150.757,147.596 147.923 C 146.557 146.937,146.681 146.980,146.215 147.446 M129.930 150.077 C 130.012 151.388,130.240 153.708,130.438 155.231 C 130.636 156.754,130.944 159.142,131.123 160.539 C 131.442 163.026,131.478 163.104,132.901 164.385 C 134.995 166.269,135.634 168.249,137.048 177.231 C 137.634 180.946,137.916 181.975,138.738 183.385 C 141.348 187.861,142.626 191.793,143.523 198.116 C 143.889 200.691,144.203 201.608,145.934 205.154 C 148.025 209.437,149.846 215.940,149.846 219.121 C 149.846 219.649,150.844 222.162,152.132 224.875 C 154.482 229.829,154.982 231.505,155.832 237.283 C 156.776 243.696,158.322 244.625,169.077 245.240 C 178.020 245.752,185.666 246.601,190.769 247.651 C 202.803 250.126,210.451 250.182,213.236 247.816 C 214.287 246.922,217.912 245.502,221.351 244.635 C 226.125 243.432,228.000 242.105,228.000 239.929 C 228.000 237.677,222.968 236.395,211.385 235.698 C 204.276 235.270,195.390 234.547,192.154 234.133 C 188.524 233.669,180.117 232.109,179.633 231.809 C 179.178 231.528,168.534 229.856,167.169 229.851 C 161.318 229.829,159.393 228.093,157.724 221.330 C 157.466 220.285,156.553 218.041,155.695 216.344 C 153.758 212.510,153.457 211.657,152.294 206.712 C 151.579 203.671,150.923 201.840,149.500 198.919 C 148.017 195.872,147.423 194.182,146.560 190.550 C 145.530 186.214,145.013 184.874,142.610 180.319 C 141.688 178.572,140.496 174.297,139.517 169.231 C 139.242 167.803,138.281 165.933,137.167 164.656 C 135.792 163.080,135.058 161.077,134.448 157.231 C 133.299 149.998,132.253 147.732,130.044 147.697 C 129.900 147.694,129.848 148.765,129.930 150.077 M151.385 162.124 C 151.385 165.559,153.076 168.739,155.606 170.059 C 156.305 170.424,156.308 170.417,156.308 168.248 C 156.308 164.630,154.826 161.764,152.272 160.443 L 151.385 159.984 151.385 162.124 M157.538 177.534 C 157.538 180.917,157.550 180.969,158.600 182.553 C 161.621 187.110,162.993 187.415,162.667 183.457 C 162.272 178.653,161.517 176.957,158.966 175.135 L 157.538 174.116 157.538 177.534 M163.521 188.421 C 162.558 192.257,164.103 198.054,166.568 199.858 C 167.944 200.865,169.183 202.997,169.213 204.407 C 169.250 206.199,170.649 206.832,174.747 206.915 C 178.736 206.995,182.463 207.899,183.704 209.088 C 185.639 210.942,190.375 211.675,204.462 212.302 C 215.191 212.780,218.725 213.383,221.846 215.272 C 224.795 217.056,228.655 217.790,236.973 218.150 C 247.544 218.606,254.528 219.091,255.121 219.408 C 255.409 219.563,256.383 219.845,257.284 220.036 C 259.014 220.403,261.173 221.370,261.691 222.010 C 262.445 222.941,266.242 223.846,269.398 223.846 L 272.488 223.846 274.069 222.588 C 274.938 221.895,276.018 220.891,276.467 220.357 C 276.917 219.822,277.481 219.385,277.720 219.385 C 277.958 219.385,278.154 219.098,278.154 218.747 C 278.154 218.078,277.491 217.231,276.967 217.231 C 276.798 217.231,276.458 217.029,276.211 216.782 C 275.578 216.149,272.464 214.641,270.462 213.998 C 269.531 213.699,268.492 213.342,268.154 213.206 C 267.815 213.069,265.392 212.874,262.769 212.772 C 254.487 212.451,248.591 211.855,245.231 211.000 C 243.793 210.634,243.634 210.541,242.104 209.173 C 241.595 208.717,240.740 208.254,240.205 208.142 C 239.669 208.031,238.951 207.763,238.609 207.547 C 237.692 206.969,236.266 206.813,228.615 206.452 C 217.401 205.923,213.236 205.164,211.383 203.311 C 210.747 202.674,210.023 202.154,209.774 202.154 C 209.525 202.154,208.398 201.819,207.271 201.410 C 205.426 200.741,204.395 200.630,196.995 200.308 C 192.471 200.111,188.354 199.826,187.846 199.674 C 187.338 199.522,186.056 199.328,184.996 199.242 C 182.848 199.067,179.077 197.504,179.077 196.788 C 179.077 196.311,176.669 195.447,172.736 194.514 C 169.386 193.719,168.680 193.334,167.360 191.586 C 166.741 190.767,165.845 189.840,165.369 189.528 C 164.893 189.216,164.332 188.640,164.123 188.250 L 163.742 187.539 163.521 188.421 M132.983 196.538 C 132.950 196.750,132.577 196.923,132.154 196.923 C 130.958 196.923,130.971 200.192,132.168 200.493 C 133.238 200.761,133.276 200.675,133.152 198.267 C 133.092 197.105,133.016 196.327,132.983 196.538 M137.419 218.657 C 137.024 222.018,137.484 224.844,138.483 225.192 L 139.346 225.493 139.560 223.779 C 139.798 221.873,139.548 217.875,139.168 217.525 C 138.135 216.574,137.625 216.904,137.419 218.657 M143.421 239.521 C 142.598 242.790,143.272 247.767,144.634 248.471 C 145.506 248.922,145.510 248.920,145.830 247.770 C 146.594 245.017,145.994 239.646,144.815 238.699 C 143.881 237.948,143.806 237.992,143.421 239.521 M149.503 259.759 C 147.835 263.713,149.719 271.311,152.496 271.832 C 155.084 272.318,166.130 269.184,165.708 268.084 C 165.615 267.841,165.538 267.457,165.538 267.230 C 165.538 266.582,162.905 265.872,159.225 265.529 C 155.110 265.145,154.013 264.511,152.328 261.542 C 150.817 258.880,150.072 258.410,149.503 259.759 " stroke="none" fill="#256f6a" fill-rule="evenodd"></path><path id="path4" d="M216.923 33.952 C 216.923 34.063,217.200 34.431,217.538 34.769 C 217.877 35.108,218.154 35.268,218.154 35.125 C 218.154 34.982,217.877 34.614,217.538 34.308 C 217.200 34.001,216.923 33.841,216.923 33.952 M219.572 43.637 C 219.449 43.837,219.005 44.000,218.585 44.000 L 217.821 44.000 218.526 44.738 C 220.122 46.411,222.080 46.010,220.655 44.303 C 220.079 43.613,219.723 43.394,219.572 43.637 M181.897 64.830 C 180.742 66.147,180.947 68.595,182.328 69.976 C 183.370 71.018,183.624 70.541,183.003 68.703 C 182.435 67.020,182.405 65.700,182.909 64.538 C 183.255 63.741,182.717 63.896,181.897 64.830 M229.231 77.655 C 229.231 77.719,229.438 77.943,229.692 78.154 C 230.070 78.468,230.154 78.447,230.154 78.038 C 230.154 77.763,229.946 77.538,229.692 77.538 C 229.438 77.538,229.231 77.591,229.231 77.655 M203.171 88.445 C 203.646 88.877,204.269 89.229,204.556 89.226 C 205.166 89.221,204.809 88.924,203.231 88.126 L 202.308 87.660 203.171 88.445 M218.026 94.264 C 218.182 94.670,218.975 95.149,220.077 95.501 C 220.910 95.767,220.724 95.539,219.391 94.656 C 217.997 93.734,217.801 93.677,218.026 94.264 M248.000 95.337 C 248.000 95.480,248.277 95.848,248.615 96.154 C 249.308 96.780,249.427 96.438,248.802 95.615 C 248.365 95.039,248.000 94.913,248.000 95.337 M233.846 100.454 C 233.846 100.534,234.296 100.819,234.846 101.088 L 235.846 101.576 235.077 100.948 C 234.336 100.345,233.846 100.148,233.846 100.454 M250.609 105.427 C 250.294 105.658,249.613 105.851,249.095 105.856 L 248.154 105.866 249.001 106.611 C 250.040 107.525,251.775 107.894,252.814 107.420 L 253.580 107.071 252.867 106.180 C 251.994 105.089,251.361 104.878,250.609 105.427 M150.462 106.648 C 150.007 106.783,148.798 108.592,149.016 108.810 C 149.077 108.872,149.307 108.587,149.526 108.177 C 150.449 106.453,151.859 106.851,154.050 109.454 C 154.869 110.426,156.023 111.755,156.615 112.405 C 157.208 113.056,157.929 114.028,158.218 114.564 C 158.848 115.733,158.896 115.606,158.371 114.154 C 157.702 112.304,157.393 111.883,153.692 107.789 C 152.804 106.806,151.491 106.343,150.462 106.648 M198.126 114.748 C 200.056 115.843,200.000 115.828,200.000 115.242 C 200.000 114.668,199.241 114.263,197.687 114.006 L 196.462 113.803 198.126 114.748 M149.252 118.272 C 149.198 119.763,150.006 121.266,151.782 122.983 C 153.918 125.046,153.688 124.157,151.250 120.923 C 150.548 119.992,149.816 118.885,149.623 118.462 C 149.340 117.839,149.268 117.803,149.252 118.272 M160.198 119.231 C 161.082 121.158,161.592 121.936,163.039 123.563 C 164.572 125.286,164.619 124.412,163.098 122.462 C 162.636 121.869,161.735 120.692,161.095 119.846 C 159.558 117.813,159.543 117.803,160.198 119.231 M215.134 120.626 C 215.758 120.956,216.354 121.365,216.460 121.536 C 216.795 122.078,217.179 121.870,217.014 121.236 C 216.914 120.857,216.430 120.507,215.735 120.314 C 214.066 119.851,213.865 119.956,215.134 120.626 M136.658 124.417 C 135.775 125.356,135.440 127.546,135.731 130.462 C 135.858 131.731,135.971 133.628,135.981 134.677 C 136.011 137.738,136.553 139.689,137.654 140.702 C 138.183 141.188,139.046 141.991,139.573 142.487 C 140.853 143.691,141.737 146.121,142.341 150.099 C 143.140 155.362,143.469 156.280,145.116 157.850 C 146.962 159.608,147.848 161.562,148.466 165.231 C 149.258 169.929,149.765 171.416,151.093 172.933 C 151.756 173.689,152.649 175.046,153.080 175.948 C 153.874 177.614,153.956 177.907,155.087 183.077 C 155.815 186.404,156.505 187.995,157.889 189.538 C 159.236 191.041,160.259 193.488,160.628 196.094 C 161.407 201.593,162.072 203.017,165.928 207.442 C 170.311 212.471,175.567 213.948,192.020 214.770 C 200.285 215.183,202.804 215.657,210.923 218.322 C 214.976 219.652,220.406 220.444,227.692 220.766 C 237.973 221.220,241.995 221.917,249.692 224.580 C 253.959 226.056,265.201 227.285,271.231 226.934 C 275.722 226.672,277.336 226.170,280.368 224.094 C 283.073 222.241,284.908 221.536,288.615 220.923 C 295.821 219.731,295.006 216.946,286.615 214.092 C 285.600 213.747,283.847 213.066,282.720 212.579 C 279.965 211.390,275.250 210.493,269.846 210.131 C 259.864 209.463,258.107 209.124,251.934 206.669 C 247.432 204.878,242.055 203.976,233.324 203.546 C 228.675 203.316,224.390 202.172,218.308 199.536 C 216.380 198.701,206.558 197.449,203.077 197.595 L 200.769 197.692 205.077 198.413 C 207.768 198.864,210.886 199.648,213.385 200.502 C 218.271 202.173,223.334 203.094,231.846 203.857 C 235.624 204.197,240.340 205.218,244.615 206.623 C 250.339 208.503,254.559 209.288,262.769 209.998 C 266.452 210.317,271.236 211.312,275.385 212.623 C 277.500 213.291,280.269 214.050,281.538 214.309 C 292.300 216.505,293.107 218.975,283.852 221.389 C 280.717 222.206,279.114 222.806,277.589 223.733 C 272.903 226.580,268.285 226.961,261.231 225.083 C 251.308 222.441,248.113 221.915,234.995 220.764 C 228.614 220.204,224.714 219.528,219.361 218.057 C 213.072 216.328,206.030 215.287,196.000 214.606 C 192.590 214.374,185.323 213.119,182.636 212.298 C 180.344 211.597,174.546 210.275,172.462 209.978 C 168.887 209.468,166.747 207.904,165.656 205.003 C 165.354 204.197,164.512 202.604,163.786 201.462 C 162.384 199.257,161.214 196.266,160.606 193.339 C 160.133 191.061,158.558 186.925,157.982 186.446 C 157.738 186.244,157.538 185.948,157.538 185.788 C 157.538 185.628,157.212 185.057,156.814 184.518 C 156.111 183.567,154.457 178.838,154.460 177.785 C 154.463 176.581,152.840 172.294,151.548 170.093 C 149.790 167.098,149.113 165.373,148.018 161.096 C 146.961 156.969,146.442 155.758,144.461 152.793 C 143.792 151.792,142.804 148.860,141.818 144.950 C 140.985 141.646,140.321 140.113,138.623 137.580 C 135.190 132.456,135.022 125.005,138.333 124.677 C 139.697 124.542,140.629 125.590,141.835 128.618 C 142.408 130.055,143.372 131.983,143.977 132.902 C 145.959 135.914,146.126 136.265,147.243 139.766 C 148.798 144.636,148.901 144.883,150.131 146.719 C 152.168 149.761,152.108 149.623,153.813 155.232 C 154.617 157.875,156.454 161.634,157.193 162.148 C 157.557 162.401,158.970 166.054,159.874 169.077 C 160.807 172.200,161.756 174.250,162.895 175.603 C 163.849 176.736,164.863 179.154,166.154 183.369 C 167.864 188.955,170.304 191.113,176.923 192.893 C 178.192 193.234,180.685 194.007,182.462 194.609 C 186.059 195.830,193.077 197.117,197.538 197.376 L 200.462 197.546 197.747 196.948 C 194.285 196.186,192.254 195.563,188.615 194.146 C 186.673 193.389,184.506 192.831,182.154 192.481 C 173.006 191.122,172.903 191.082,170.300 187.846 C 169.482 186.831,168.734 185.931,168.636 185.846 C 167.255 184.652,166.296 182.468,165.547 178.811 C 164.910 175.703,164.181 174.053,162.655 172.271 C 161.223 170.597,160.378 168.728,159.660 165.644 C 158.791 161.915,158.149 160.397,156.193 157.452 C 154.250 154.526,153.806 153.482,152.897 149.692 C 152.123 146.463,151.764 145.689,149.953 143.328 C 148.313 141.192,147.597 139.570,146.975 136.591 C 146.265 133.191,145.658 131.729,144.171 129.836 C 143.432 128.896,142.388 127.371,141.850 126.448 C 140.195 123.607,138.164 122.813,136.658 124.417 M232.615 126.923 C 234.468 128.087,234.830 128.209,234.593 127.590 C 234.451 127.221,231.707 125.836,231.151 125.853 C 231.026 125.857,231.685 126.338,232.615 126.923 M166.764 131.077 C 167.611 132.751,170.267 136.114,170.409 135.692 C 170.677 134.898,169.657 133.166,167.949 131.515 L 166.064 129.692 166.764 131.077 M155.405 130.646 C 155.349 132.390,156.347 134.005,158.576 135.778 C 160.030 136.936,159.774 136.353,157.523 133.385 C 156.753 132.369,155.966 131.192,155.775 130.769 C 155.456 130.065,155.424 130.055,155.405 130.646 M187.042 130.998 C 187.498 131.830,188.612 132.662,189.129 132.556 C 189.423 132.496,189.070 132.092,188.170 131.459 C 187.253 130.814,186.851 130.650,187.042 130.998 M248.308 132.075 C 249.194 132.796,251.944 134.059,251.798 133.677 C 251.592 133.141,250.428 132.497,249.078 132.172 C 248.570 132.050,248.224 132.006,248.308 132.075 M124.738 137.354 C 123.649 138.444,123.541 138.929,123.667 142.154 C 123.812 145.823,123.038 147.449,120.442 148.934 C 117.427 150.660,116.476 156.108,118.367 160.831 C 120.326 165.726,122.272 165.494,122.765 160.308 C 123.393 153.684,124.428 151.200,126.219 152.016 C 129.733 153.617,129.256 163.501,125.575 165.366 C 123.408 166.464,123.384 166.552,123.391 173.287 C 123.401 182.920,124.365 186.300,127.576 187.951 C 128.570 188.463,128.953 190.566,129.239 197.077 C 129.608 205.475,130.158 207.575,132.797 210.664 C 134.436 212.582,134.884 214.429,135.213 220.615 C 135.584 227.607,136.352 230.436,138.761 233.692 C 140.101 235.503,140.528 237.144,141.086 242.615 C 141.939 250.983,142.853 254.576,144.610 256.461 C 145.628 257.553,146.431 260.191,147.067 264.530 C 148.688 275.605,150.490 277.007,158.308 273.277 C 159.662 272.631,161.462 271.925,162.308 271.708 C 168.285 270.174,169.846 269.340,169.846 267.681 C 169.846 265.755,166.603 264.503,160.432 264.045 C 155.239 263.660,154.797 263.312,153.541 258.625 C 152.859 256.079,151.675 253.468,150.738 252.445 C 149.555 251.152,148.590 248.034,148.136 244.036 C 147.893 241.901,147.541 238.782,147.352 237.105 C 146.846 232.603,146.523 231.730,144.912 230.525 C 142.202 228.499,141.538 225.350,141.538 214.523 C 141.538 209.032,141.556 209.078,139.369 208.735 C 136.032 208.212,134.881 204.317,135.662 196.189 C 136.744 184.927,141.846 191.358,141.846 203.984 C 141.846 208.290,142.076 209.231,143.128 209.231 C 145.383 209.231,147.247 213.624,148.156 221.077 C 148.804 226.392,149.066 227.279,150.503 228.997 C 152.657 231.571,153.696 234.606,154.419 240.431 C 155.023 245.296,156.084 245.887,166.923 247.401 C 174.117 248.405,175.114 248.560,181.656 249.681 C 200.392 252.891,211.826 252.651,216.949 248.940 C 218.517 247.804,220.646 247.000,224.769 245.986 C 229.888 244.727,230.332 244.421,234.198 239.495 C 237.114 235.779,234.825 235.037,217.692 234.148 C 205.445 233.512,201.016 232.971,193.385 231.178 C 186.254 229.503,179.713 228.605,170.283 228.005 C 161.345 227.437,160.977 227.141,159.543 219.385 C 159.244 217.771,158.641 215.945,157.966 214.615 C 157.365 213.431,156.345 211.423,155.700 210.154 C 154.799 208.380,154.310 206.766,153.587 203.175 C 152.708 198.812,151.591 195.720,150.328 194.154 C 149.377 192.975,148.251 189.573,147.378 185.247 C 146.446 180.626,145.854 178.952,144.488 177.077 C 143.125 175.204,142.178 172.399,141.268 167.538 C 140.163 161.631,140.198 161.738,138.789 160.000 C 136.650 157.362,135.846 154.678,134.776 146.615 L 134.450 144.154 132.441 142.190 C 131.337 141.110,130.164 139.699,129.835 139.054 C 128.473 136.386,126.399 135.693,124.738 137.354 M205.501 137.160 C 205.785 137.692,208.810 138.985,209.097 138.697 C 209.239 138.556,205.799 136.615,205.408 136.615 C 205.298 136.615,205.340 136.861,205.501 137.160 M127.834 142.231 C 129.117 145.578,129.203 145.717,130.416 146.400 C 133.188 147.962,134.030 149.861,135.258 157.328 C 136.220 163.179,136.033 162.653,137.800 164.464 C 139.590 166.299,140.198 167.894,141.375 173.846 C 142.430 179.179,142.619 179.730,144.265 182.269 C 145.907 184.801,146.213 185.641,147.529 191.231 C 148.695 196.181,149.475 198.379,150.585 199.834 C 151.733 201.339,152.429 203.320,153.647 208.549 C 154.497 212.198,155.104 213.987,156.432 216.748 C 157.366 218.690,158.516 221.497,158.988 222.984 C 160.535 227.860,161.883 228.619,170.893 229.690 C 172.940 229.933,175.377 230.331,176.308 230.573 C 183.858 232.540,194.865 233.909,208.923 234.630 C 217.838 235.088,226.192 236.790,227.604 238.437 C 229.924 241.141,227.418 243.882,221.109 245.543 C 216.778 246.683,216.742 246.696,213.145 248.458 C 209.231 250.376,201.849 250.816,197.875 249.370 C 197.436 249.211,190.226 248.093,184.308 247.267 C 182.531 247.019,178.169 246.657,174.615 246.463 C 157.389 245.520,156.361 244.934,154.647 235.077 C 153.662 229.405,152.657 226.421,150.608 223.077 C 150.245 222.485,149.853 221.654,149.736 221.231 C 148.850 218.027,148.574 216.821,148.135 214.243 C 147.390 209.871,146.374 206.710,144.965 204.377 C 143.806 202.459,142.160 197.251,142.151 195.475 C 142.137 192.676,139.758 185.576,138.368 184.187 C 137.957 183.775,137.540 183.115,137.442 182.719 C 137.344 182.324,137.044 181.238,136.776 180.308 C 136.507 179.377,136.090 177.162,135.849 175.385 C 134.866 168.128,134.158 165.976,132.365 164.796 C 130.906 163.835,130.173 161.281,129.667 155.385 C 128.957 147.128,128.655 145.846,127.414 145.846 C 126.970 145.846,126.742 145.423,126.379 143.923 C 125.742 141.287,125.874 140.386,126.951 140.010 C 126.966 140.004,127.364 141.004,127.834 142.231 M172.923 142.067 C 172.923 142.478,176.146 146.409,177.757 147.963 C 180.577 150.683,183.246 152.234,186.809 153.221 C 189.777 154.044,189.966 154.006,188.260 152.935 C 187.472 152.440,186.737 151.889,186.626 151.710 C 186.516 151.531,186.232 151.385,185.996 151.385 C 185.759 151.385,185.084 151.058,184.495 150.658 C 183.906 150.258,182.844 149.838,182.135 149.725 C 179.940 149.374,178.393 148.230,177.083 145.990 C 175.885 143.943,172.923 141.149,172.923 142.067 M161.563 142.887 C 161.500 144.367,162.311 145.879,164.090 147.598 C 166.234 149.670,165.998 148.732,163.579 145.568 C 162.880 144.653,162.146 143.546,161.948 143.106 C 161.664 142.474,161.583 142.429,161.563 142.887 M225.101 143.225 C 225.555 143.918,227.854 144.937,228.901 144.911 C 229.422 144.897,228.450 144.302,226.080 143.182 L 224.622 142.493 225.101 143.225 M244.920 149.532 C 245.121 149.908,245.919 150.328,247.007 150.630 C 247.976 150.899,248.942 151.174,249.154 151.242 C 250.252 151.594,249.267 150.963,247.224 150.007 C 244.521 148.741,244.493 148.736,244.920 149.532 M272.926 150.000 C 272.926 150.169,273.267 150.723,273.683 151.231 C 274.099 151.738,274.439 152.015,274.439 151.846 C 274.439 151.677,274.099 151.123,273.683 150.615 C 273.267 150.108,272.926 149.831,272.926 150.000 M167.571 154.833 C 167.886 156.778,168.460 158.094,169.454 159.144 C 170.569 160.323,172.000 161.558,172.000 161.341 C 172.000 160.972,171.186 159.706,169.853 158.000 C 169.060 156.985,168.181 155.600,167.899 154.923 L 167.387 153.692 167.571 154.833 M264.916 155.680 C 265.350 156.490,267.130 157.300,268.205 157.177 C 269.071 157.078,269.068 157.073,267.846 156.505 C 267.169 156.190,266.213 155.740,265.722 155.505 C 264.570 154.953,264.532 154.962,264.916 155.680 M200.000 155.738 C 200.592 155.923,202.600 156.729,204.462 157.531 C 207.409 158.800,211.901 160.202,212.167 159.936 C 212.409 159.694,206.557 156.470,205.271 156.137 C 203.283 155.621,198.450 155.256,200.000 155.738 M223.385 162.149 C 224.315 162.453,226.323 163.252,227.846 163.923 C 230.298 165.003,234.425 166.293,234.664 166.054 C 234.790 165.928,231.157 163.581,229.692 162.841 C 229.012 162.498,227.221 162.067,225.692 161.880 C 221.954 161.421,221.371 161.489,223.385 162.149 M174.222 166.154 C 175.149 168.809,177.724 170.354,181.692 170.636 L 183.846 170.789 181.778 170.000 C 179.037 168.953,175.400 166.884,174.539 165.882 L 173.847 165.077 174.222 166.154 M246.373 168.262 C 247.256 168.574,248.156 168.970,248.373 169.143 C 248.926 169.581,253.407 171.289,255.077 171.698 C 255.838 171.884,256.738 172.106,257.077 172.191 C 257.783 172.368,255.464 170.769,252.941 169.338 C 251.723 168.647,250.655 168.312,249.231 168.174 C 248.131 168.068,246.677 167.917,246.000 167.838 C 244.789 167.697,244.795 167.704,246.373 168.262 M133.777 172.960 C 135.673 176.748,135.550 185.385,133.585 186.437 C 129.853 188.434,128.585 185.265,129.558 176.372 C 130.125 171.183,132.092 169.592,133.777 172.960 M197.231 173.379 C 201.729 175.863,205.291 176.931,209.040 176.919 C 210.251 176.915,210.198 176.876,207.846 176.030 C 206.492 175.544,204.268 174.726,202.902 174.212 C 201.537 173.698,199.529 173.122,198.441 172.931 C 197.352 172.740,196.185 172.514,195.846 172.429 C 195.508 172.343,196.131 172.771,197.231 173.379 M268.000 174.193 C 268.592 174.354,270.462 175.094,272.154 175.838 C 274.608 176.917,280.615 178.886,280.615 178.610 C 280.615 178.473,276.984 176.138,275.692 175.444 C 274.305 174.699,270.020 173.825,268.000 173.875 L 266.923 173.902 268.000 174.193 M224.154 179.712 C 227.362 181.792,229.886 182.586,234.308 182.910 L 236.769 183.089 234.769 182.342 C 228.616 180.042,225.822 179.132,224.308 178.935 L 222.615 178.715 224.154 179.712 M282.923 179.862 C 284.828 181.278,285.907 182.330,286.782 183.626 L 287.762 185.077 287.545 183.846 C 287.196 181.867,286.467 180.928,284.654 180.121 C 282.795 179.293,281.998 179.174,282.923 179.862 M251.496 186.287 C 255.115 188.388,258.278 189.253,262.154 189.205 L 263.846 189.184 262.000 188.617 C 260.985 188.306,258.423 187.433,256.308 186.677 C 254.192 185.921,251.700 185.208,250.769 185.093 L 249.077 184.883 251.496 186.287 M288.659 190.772 C 288.764 193.736,286.729 194.302,282.102 192.596 C 280.120 191.866,275.735 190.770,274.792 190.769 C 274.720 190.769,276.495 191.704,278.738 192.846 L 282.815 194.923 286.665 194.923 C 290.339 194.923,290.541 194.890,291.103 194.197 C 291.874 193.247,291.914 193.376,290.140 191.108 L 288.601 189.140 288.659 190.772 M133.106 200.535 C 133.021 200.620,132.599 200.601,132.168 200.493 C 130.971 200.192,130.958 196.923,132.154 196.923 C 132.577 196.923,132.950 196.750,132.983 196.538 C 133.016 196.327,133.092 197.105,133.152 198.267 C 133.212 199.429,133.191 200.450,133.106 200.535 M139.168 217.525 C 139.548 217.875,139.798 221.873,139.560 223.779 L 139.346 225.493 138.483 225.192 C 137.674 224.910,137.608 224.753,137.417 222.648 C 137.004 218.090,137.669 216.144,139.168 217.525 M144.805 238.699 C 146.015 239.686,146.611 244.958,145.830 247.770 C 145.513 248.911,145.500 248.919,144.659 248.484 C 143.239 247.750,142.570 242.902,143.421 239.521 C 143.806 237.993,143.884 237.947,144.805 238.699 M152.106 261.114 C 154.012 264.384,155.031 264.963,159.385 265.252 C 163.235 265.508,165.351 266.289,165.674 267.574 C 165.785 268.018,165.835 268.409,165.784 268.444 C 163.329 270.157,154.927 272.288,152.458 271.825 C 150.086 271.380,149.077 269.135,149.077 264.308 C 149.077 258.509,150.012 257.523,152.106 261.114 M293.462 306.413 C 291.914 307.347,292.391 307.692,295.231 307.692 C 297.305 307.692,297.846 307.600,297.846 307.248 C 297.846 305.976,295.064 305.446,293.462 306.413 " stroke="none" fill="#92a4a4" fill-rule="evenodd"></path></g></svg>